Coordinates
version=1
nRows=15
nColumns=34
inDegrees=yes

Units are S.I. units (second, meters, Newtons, ...)
If the header above contains a line with 'inDegrees', this indicates whether rotational values are in degrees (yes) or radians (no).

endheader
time	pelvis_tilt	pelvis_list	pelvis_rotation	pelvis_tx	pelvis_ty	pelvis_tz	hip_flexion_r	hip_adduction_r	hip_rotation_r	knee_angle_r	ankle_angle_r	subtalar_angle_r	mtp_angle_r	hip_flexion_l	hip_adduction_l	hip_rotation_l	knee_angle_l	ankle_angle_l	subtalar_angle_l	mtp_angle_l	lumbar_extension	lumbar_bending	lumbar_rotation	arm_flex_r	arm_add_r	arm_rot_r	elbow_flex_r	pro_sup_r	arm_flex_l	arm_add_l	arm_rot_l	elbow_flex_l	pro_sup_l
      2.40000000	     10.44267309	     -0.34919640	      1.63810941	    -10.68169671	      0.96320406	      0.56758837	    -22.74517910	      6.84474951	    -22.83854175	      0.00000000	     -4.09326382	    -21.99510462	      0.00000000	     13.26610816	      4.03204965	     10.74700626	     31.01516293	    -12.05709805	    -30.43186650	      0.00000000	     -9.37979033	     10.12060792	    -12.52142132	   -249.43786638	      3.85271383	     23.60562019	     94.22342537	    119.74817918	   -350.36531891	    -65.52085760	    -41.13289201	    113.01541996	    111.30121841
      2.41666670	      9.89033035	     -0.79924601	      1.26805253	    -10.68194931	      0.96196502	      0.56874863	    -22.01091483	      7.21503945	    -23.34869693	      0.00000000	     -6.40956389	    -24.78669379	      0.00000000	     14.47191744	      3.71578891	     10.98448881	     32.39047458	    -12.88634348	    -31.56961319	      0.00000000	     -8.85506496	     10.30486376	    -12.20064625	   -251.35735268	      2.35647431	     23.91657806	     97.79567640	    119.74817918	   -354.95353635	    -63.01510076	    -43.37263187	    115.23728727	    111.52693402
      2.43333330	      9.89193755	     -1.17550886	      0.79482182	    -10.68313444	      0.96118894	      0.57037233	    -21.63953755	      7.45943463	    -24.10402563	      0.30037192	     -7.52065573	    -26.25176383	      0.00000000	     14.90583973	      3.18843977	     10.58707665	     33.08975762	    -13.44845101	    -32.17868899	      0.00000000	     -9.57795860	     10.33336000	    -11.93138005	   -252.82872025	      1.39205293	     23.53318968	    102.03669850	    119.74817918	   -357.60870224	    -60.67402276	    -46.37463694	    116.45981263	    111.72016174
      2.45000000	      9.76311562	     -1.33725879	      0.45707217	    -10.68325256	      0.96198705	      0.57134327	    -20.88187451	      7.39660847	    -24.22924662	      1.10473168	     -7.68176032	    -26.63797163	      0.00000000	     15.03980239	      2.88673163	     10.44778115	     32.70712631	    -13.98840296	    -32.28828452	      0.00000000	    -10.28783995	     10.07419194	    -11.86808798	   -254.28357176	      0.61747646	     22.64547553	    105.65118203	    119.74817918	   -359.09279369	    -59.04738858	    -48.07146592	    116.37660288	    111.86435445
      2.46666670	      9.52536504	     -1.40286471	      0.46749639	    -10.68252245	      0.96224029	      0.57139633	    -20.01032942	      7.30783310	    -23.91796186	      2.12161013	     -7.16212841	    -26.60402676	      0.00000000	     15.20672877	      2.77791952	     10.66488887	     32.14530425	    -13.84522756	    -32.85172728	      0.00000000	    -10.90089348	      9.39032322	    -12.40611551	   -256.20047517	     -0.30735285	     21.44990448	    109.56381633	    119.74817918	   -360.98099222	    -58.30711316	    -50.17331534	    118.05811623	    112.13938212
      2.48333330	      9.08522708	     -1.47620554	      0.51805825	    -10.68278724	      0.96055946	      0.57084961	    -18.91163020	      7.14614924	    -24.13760595	      3.33715527	     -4.63496410	    -24.30695575	      0.00000000	     15.65964026	      2.72700692	     10.94588539	     31.79579140	    -13.58820459	    -32.71342414	      0.00000000	    -12.93084270	      9.36518026	    -18.17538859	   -256.24458895	      3.74886012	     19.86244428	    110.88169046	    119.74817918	   -383.97170576	    -54.56040861	    -76.21108473	    124.01969819	    114.48500195
      2.50000000	      9.05316598	     -1.54466792	      0.40879605	    -10.68494945	      0.95833415	      0.57113245	    -18.57008150	      7.09853609	    -23.48523080	      3.92963518	     -4.67261832	    -25.37903951	      0.00000000	     15.77893040	      2.64736832	     11.03038447	     31.79904853	    -13.30374903	    -32.74642060	      0.00000000	    -13.14079957	      8.95473317	    -18.14167973	   -257.54139909	      2.41051218	     19.89277156	    113.11301138	    119.74817918	   -385.30987979	    -53.40314133	    -76.62250047	    124.70526179	    113.95607977
      2.51666670	      8.99972274	     -1.74099605	      0.43822917	    -10.68677653	      0.95667598	      0.57181544	    -18.29922365	      7.29488180	    -23.04212831	      4.29610060	     -4.85578249	    -26.45571949	      0.00000000	     16.29147076	      2.48494082	     11.19127303	     32.50885722	    -11.75287419	    -31.71289092	      0.00000000	    -15.72964647	      8.25965404	    -24.88459720	   -258.21542246	      5.45100632	     17.17995758	    115.01943517	    119.74817918	   -406.36142461	    -42.78214173	    -99.09083411	    131.10572832	    107.68882785
      2.53333330	      9.19192793	     -1.92060244	      0.22164169	    -10.68589052	      0.95640051	      0.57247704	    -18.48436149	      7.40370567	    -22.69373121	      4.42041989	     -4.33851784	    -26.63523920	      0.00000000	     16.20299570	      2.40554623	     11.56333919	     32.90082337	    -11.15345266	    -31.97015944	      0.00000000	    -16.07386780	      8.28994760	    -24.79902188	   -258.69118224	      4.50041981	     17.68369659	    116.09207516	    119.74817918	   -408.23383159	    -38.15714620	    -96.97427821	    132.91696445	    107.64535685
      2.55000000	      8.34590752	     -2.35805658	      0.25080796	    -10.68408274	      0.95419594	      0.57300436	    -17.43247281	      7.88639350	    -22.65193688	      4.81089278	     -4.14488431	    -26.84643211	      0.00000000	     17.87247260	      1.94077751	     11.54612082	     34.33580750	     -9.90047250	    -30.78780459	      0.00000000	    -17.13531445	      6.82869926	    -29.50416226	   -261.41648552	      4.33994194	     13.91824365	    119.41925237	    119.74817918	   -418.21893589	    -25.75587010	   -106.79675493	    138.48593869	    105.25631374
      2.56666670	      8.49016433	     -2.42876942	      0.21108549	    -10.68286457	      0.95476429	      0.57288334	    -17.82931634	      8.01217716	    -22.55857492	      4.66287672	     -3.95767955	    -26.94877597	      0.00000000	     17.91847153	      1.93848273	     11.72959619	     34.84271538	     -9.65826285	    -30.75555993	      0.00000000	    -17.75574220	      6.39142776	    -29.90086224	   -262.52244358	      2.80511129	     14.66655060	    121.48272808	    119.74817918	   -418.93817584	    -23.04013057	   -105.23499369	    139.44941009	    104.97309529
      2.58333330	      8.08716099	     -2.60903283	      0.14856910	    -10.68045468	      0.95432918	      0.57258908	    -17.44993318	      8.11930570	    -22.20035742	      5.00365011	     -3.79584722	    -26.83051280	      0.00000000	     18.78418395	      1.79784717	     11.74120253	     35.59293106	     -9.42295475	    -30.41821384	      0.00000000	    -17.85912877	      6.32372980	    -30.55235410	   -263.97219503	      2.23523065	     14.49314000	    124.04206454	    119.74817918	   -417.74486973	    -23.12900869	   -103.86371037	    138.52191488	    104.71535823
      2.60000000	      6.79873657	     -3.09013133	     -0.02165371	    -10.67680561	      0.95412315	      0.57177276	    -15.83653342	      8.35744825	    -21.73029766	      5.94554117	     -3.41382867	    -26.77410233	      0.00000000	     20.88236272	      1.37386975	     11.69009571	     36.83881340	     -9.07344820	    -29.60153952	      0.00000000	    -16.13396014	      7.21164066	    -29.93772627	   -265.42811148	      1.70278599	     15.76179211	    126.44599718	    119.74817918	   -413.02172745	    -26.21391224	    -98.21982859	    136.14423437	    104.58484563
      2.61666670	      6.02708004	     -3.53705376	     -0.33226851	    -10.67573760	      0.95319504	      0.57161539	    -14.76014265	      8.58198354	    -21.46372725	      6.66893214	     -3.82923187	    -27.26128912	      0.00000000	     22.34613848	      0.88443631	     11.42619120	     38.00604903	     -9.44623775	    -29.55823091	      0.00000000	    -15.28578464	      7.89215096	    -29.30802086	   -266.42136991	      1.32185189	     16.34203278	    128.96252427	    119.74817918	   -408.94722233	    -28.02684786	    -93.94951470	    134.09071235	    105.11518922
      2.63333330	      6.16276637	     -3.80412598	     -0.50744392	    -10.67714376	      0.95283595	      0.57193526	    -14.88519102	      8.83801503	    -21.31968587	      6.61327427	     -3.76625152	    -27.26489828	      0.00000000	     22.52276385	      0.53462699	     11.16213760	     38.68560772	     -9.79097997	    -29.45636274	      0.00000000	    -16.05092258	      8.10158025	    -29.74991862	   -267.22166293	      1.54346832	     16.45746380	    130.23652383	    119.74817918	   -407.67490510	    -27.03442957	    -93.35729093	    133.54754919	    105.18797742
